<?xml version="1.0" encoding="utf-8"?>
<!-- Generator: Adobe Illustrator 26.5.0, SVG Export Plug-In . SVG Version: 6.00 Build 0)  -->
<svg version="1.1" id="Layer_1" xmlns="http://www.w3.org/2000/svg" xmlns:xlink="http://www.w3.org/1999/xlink" x="0px" y="0px"
	 viewBox="0 0 400 256" style="enable-background:new 0 0 400 256;" xml:space="preserve">
<style type="text/css">
	.st0{fill:#FFFFFF;}
</style>
<path class="st0" d="M30.7,58.3c-1.7-0.2-3.4,0.2-5,0.4c-1.7,0.2-3.1,0.9-4.6,1.6c-1.5,0.7-2.7,1.6-4,2.6c-1.3,1.1-2.8,1.8-3.6,3.2
	c-0.9,1.6-1.8,3.3-2,5c-0.2,1.7,1.1,3.4,1.6,5.1c0.5,1.7,0.4,3.6,1.5,5.1c1.1,1.4,2.6,2.3,4.2,3.3c-2-0.6-3.8-0.6-5.7-0.3
	c-1.9,0.3-3.9,0.9-5.5,2c-1.7,1-3.2,2.3-4.5,3.8c-1.2,1.5-1.8,3.4-2.4,5.1c-0.6,1.8-0.7,3.6-0.4,5.5c0.3,1.9,0.5,3.8,1.3,5.5
	c0.8,1.7,1.3,3.7,2.6,5.3c1.2,1.5,3.4,2.1,4.9,3.5c1.5,1.3,2.7,2.8,4.4,3.9c1.6,1.1,2.8,2.2,4.5,3.1c-1.7,0.6-3,0.8-4.6,1.5
	c-1.6,0.8-3.2,1.7-4.6,2.6c-1.5,1-2.2,2.8-3.4,4c-1.3,1.3-2.1,2.6-2.9,4c-0.8,1.5-1.2,2.9-1.2,4.6c0,1.6,0,3,0.8,4.7
	c0.6,1.4,0.9,3.1,2.2,4.6c1.2,1.4,3.1,2,4.5,3.1c1.3,1.1,2.4,2,3.8,2.8c1.4,0.8,2.7,1.8,4.2,2.5c1.4,0.7,2.7,1.5,4.1,2.5
	c-2,0.1-3.7,1-5.5,1.5c-1.9,0.5-3.9,0.6-5.6,1.5c-1.7,0.9-3.6,1.8-4.9,3.1c-1.4,1.3-2.1,3.2-3,4.8c-0.8,1.6-0.8,3.4-1,5.3
	c-0.2,1.8,0,3.5,0.6,5.2c0.6,1.7,1.3,3.3,2.4,4.8c1.1,1.5,2,3.2,3.5,4.4c1.5,1.1,3.4,1.8,5.2,2.5c1.8,0.7,2.9,1.5,4.9,1.6
	c-1.7,0.8-2.9,1.7-4.5,2.8c-1.6,1.1-2.5,3-3.8,4.3c-1.4,1.5-3.6,2.3-4.5,3.9c-0.9,1.8-0.8,3.9-0.8,5.7c-0.1,1.8,0.7,3.4,1.8,5.2
	c1,1.7,2.2,2.8,3.9,3.8c1.6,1,3.3,1.5,5.3,2c1.8,0.5,3.7,0.9,5.7,1.1c1.9,0.2,3.9,0.2,5.8,0.2c2,0,4.1,0.2,6,0.1
	c-1.3,1.5-1,3.6-0.7,5.8c0.4,2.1,1,4.2,1.7,5.8c0.5,1.1,0.9,2.4,1.7,3.3c1.4,1.4,3.1,2.5,5,3.1c1.7,0.6,3.5,1.2,5.3,1.5
	c1.8,0.3,3.7-0.2,5.6-0.1c1.8,0.1,3.7,0.5,5.5,0.4c1.8-0.2,3.7-0.2,5.5-0.6c1.8-0.3,3.7-0.6,5.4-1c2-0.5,3.7-1.9,5.6-2.6
	c1.9-0.7,4.1-0.9,6-1.7c2-0.8,3.9-2,5.7-3.1c0.8-0.5,4.8-2.9,4.8-3.9c-0.1,1.9,0.5,3.6,1.1,5.4c0.6,1.8,1.3,3.4,2.5,4.9
	c1.1,1.5,1.9,3.4,3.4,4.6c1.5,1.2,3.4,1.8,5.2,2.7c1.8,0.8,3.6,1.3,5.5,1.7c1.7,0.3,3.3,0.5,4.9,0.4c1.7,0,3.5,0.7,5.2,0.3
	c1.7-0.4,3.2-1.4,4.7-2c1.6-0.7,2.7-1.9,4.1-2.9c1.4-1,2.7-1.9,3.7-3.2c1.1-1.3,2.4-2.4,3.1-3.8c-0.8,1.8-0.3,3.6,1,5.4
	c1.2,1.6,2.4,3.5,3.6,4.7c1.4,1.4,3.3,2.4,5.1,3.4c1.8,1,3.8,1.4,5.8,1.9c1.6,0.4,3.2,1.3,4.8,1.5c1.7,0.2,3.4,0,5,0
	c2.1,0,4-0.4,5.8-0.5c2-0.2,3.6-1,5.4-1.7c1.7-0.6,4-0.5,5.6-1.7c1.3-1,1.9-2.8,3.1-4c1.2-1.1,2.9-1.8,4-3s1.8-2.4,2.9-3.6
	c0.8,1.8,2.5,2.8,3.6,4.3c1.1,1.6,2.3,3,3.8,4.3c1.5,1.3,2.5,3.1,4.3,4c1.7,0.9,3.8,0.9,5.9,1.4c1.7,0.5,3.4,1.4,5.2,1.8
	c1.8,0.3,3.6,0.1,5.5,0.2c1.8,0.1,3.6,0.3,5.4,0.2c1.8-0.1,3.6-0.6,5.4-0.8c1.8-0.3,3.8,0.4,5.6-0.1c1.7-0.5,3.6-0.8,5.3-1.5
	c1.7-0.7,3.3-1.6,4.8-2.6c1.5-0.9,2.3-2.9,3.6-4c1.4-1.2,3.3-1.9,4.3-3.2c1.1-1.4,1.7-3.1,2.4-4.7c0.7-1.6,1.1-3.7,1.4-5.4
	c1.1,1.5,2.4,3.5,3.8,4.7c1.4,1.2,2.9,2.6,4.6,3.5c1.7,0.9,3.7,1.1,5.6,1.7c1.8,0.6,3.6,1.5,5.5,1.8c1.9,0.3,3.9-0.5,5.8-0.5
	c1.9,0,3.9,0.8,5.8,0.5c1.9-0.3,3.7-0.9,5.4-1.6c1.7-0.8,3-2.1,4.5-3.2c1.5-1.1,2.7-2.4,3.9-3.7c0.6-0.6,2.6-1.6,4.1-3.4
	c1.1-1.3,2-3,2.9-4.4c1.4-2.1,1.9-3.7,1.3-4.5c0.9,1.4,2.2,2.5,3.1,3.9c0.9,1.4,2.2,2.5,3.2,3.8c1,1.3,2.2,2.4,3.4,3.6
	c1.1,1.2,1.5,3.2,2.8,4.3c1.3,1,3.1,1.4,4.6,2.1c1.5,0.7,3.1,1.1,4.8,1.5c1.6,0.4,3.3,0.9,5,1c1.7,0,3.3-0.8,4.9-1.2
	c1.6-0.4,3.3-0.6,4.8-1.5c1.5-0.9,3.2-1.8,4.4-3.1c1.1-1.3,0.9-3.5,1.7-5c0.8-1.5,2.3-2.7,2.7-4.3c0.4-1.6,0.6-3.3,0.7-4.9
	c0.1-1.6,0.4-3.3,0.3-4.9c-0.1-1.6-0.8-2.6-1-4.2c0.9,1.4,1.9,2.1,3.4,2.9c1.4,0.8,3.2,0.9,5,1.3c1.6,0.3,3.3,0.3,5.1,0.3
	c1.7,0,3.4-0.2,5.1-0.4c2.4-0.3,5.2,0.4,7.4-0.6c1.8-0.8,2.7-2.8,4.1-4c1.4-1.3,2.7-2.5,3.6-4.1c0.9-1.6,1.5-3.3,2-5.1
	c0.4-1.8,1.6-3.6,1.6-5.4c0-1.9-1-3.7-1.5-5.4c-0.5-1.7-1.2-3.3-2-4.8c-0.8-1.5-2.1-2.8-3.1-4.3c-1-1.5-1.2-3.4-2.3-4.8
	c-1.1-1.4-2.1-2.4-3.2-3.8c1.8-0.1,3.3-0.5,5-0.9c1.8-0.4,3.7-0.7,5.3-1.4c1.7-0.7,3.4-1.6,4.9-2.6c1.5-1,2.7-2.5,3.9-3.8
	c1.2-1.3,2.5-2.7,3.3-4.2c0.9-1.5,1.8-3.2,2.2-4.9c0.4-1.7-0.6-3.5-0.7-5.3c-0.1-1.8-0.3-3.6-0.9-5.3c-0.7-1.7-1.4-3.4-2.6-4.9
	c-1.1-1.5-2.5-2.7-4-3.9c-1.5-1.2-2.6-3-4.4-3.7c1.2,0.5,5.5-1.6,6.4-2.2c1.9-1.5,3.5-3.5,4.7-5.5c1.2-1.9,1.9-4,2.3-6.2
	c0.4-2.1-0.5-4.2-1.1-6.3c-0.4-1.5-1.1-2.9-1.8-4.3c-0.7-1.4-0.5-3.3-1.4-4.7c-0.9-1.3-2.6-2.1-3.7-3.3c-1.1-1.2-1.7-2.8-3-3.9
	c-1.3-1-2.9-1.6-4.3-2.5c-1.4-0.8-3.1-1.2-4.6-1.8c1.9,0.8,4.2,0.8,6.1,0.6c2-0.2,4-0.8,5.8-1.8c1.7-1,2.8-2.7,4.1-4.2
	c1.3-1.5,2.2-3.1,2.8-4.9c0.6-1.8,0.4-3.6-0.1-5.4c-0.4-1.6-0.6-3.3-1.5-4.6c-0.9-1.4-2.6-2.1-3.9-3.2c-1.3-1.1-2.4-2.3-3.9-3.1
	c-1.5-0.8-3-1.4-4.7-2c-1.6-0.6-3-1.9-4.7-2.2c-1.7-0.3-4.1,0.2-5.8,0.1c1.3-1,3-2.3,4.3-3.3c1.3-1.1,3.2-1.6,4.2-2.8
	c1.1-1.3,0.9-3.3,1.6-4.7c0.7-1.5,1.3-2.7,1.2-4.4c-0.1-1.6-0.2-3.2-1-4.6c-0.8-1.3-2.1-2.4-3.4-3.4c-1.3-1-2.8-1.5-4.4-2.1
	c-1.5-0.7-2.8-2.2-4.4-2.5c-1.7-0.3-3.6,0.2-5.4,0.1c-1.8,0-3.5,0.2-5.3,0.4c-1.8,0.2-3.4,0.9-5.1,1.2c-1.7,0.3-3.3-0.1-5,0.2
	c1.2-1.3,1-2.7,1.3-4.2c0.3-1.6,0.4-3,0-4.6c-0.4-1.5-0.9-3-1.8-4.3c-1-1.3-2.2-2.3-3.6-3.2c-1.5-0.9-2.8-2.6-4.6-3.1
	c-1.7-0.4-3.8,0.7-5.6,0.7c-1.8,0-3.5,0-5.3,0.3c-1.8,0.4-3.6,0.6-5.2,1.3c-1.6,0.7-3,1.7-4.4,2.6c-1.4,1-2.8,1.9-4.1,3.1
	c-1.3,1.2-1.9,2.8-3,4.1c-1.1,1.3-2.7,2.5-3.6,3.9c0.5-1.6,0.3-3.3,0.2-5c-0.1-1.6-0.2-3.1-0.8-4.7c-0.5-1.5-1.1-3.1-2-4.5
	c-0.9-1.4-2.1-2.5-3.3-3.7c-1.2-1.1-2.3-2.4-3.8-3.3c-1.4-0.9-3.3-0.9-4.9-1.4c-1.6-0.5-3.1-1.3-4.8-1.4s-3.6-0.8-5.3-0.6
	c-1.7,0.3-3.3,1.3-4.9,2c-1.6,0.6-3.4,1-4.9,1.9c-1.4,0.9-2.8,2.1-4,3.3c-1.2,1.2-1.8,2.9-2.7,4.3c-0.9,1.5-1.7,2.9-2.1,4.5
	c-0.4,1.6,0.1,3.6,0.3,5.3c-0.2-1.5-1.3-3.4-1.9-5.1c-0.5-1.5-1.3-3-2.1-4.5c-0.7-1.4-1.9-2.7-2.8-4.2c-0.9-1.4-1.3-3.1-2.4-4.4
	c-1-1.3-1.8-2.9-3-4.1c-1.2-1.2-2.9-2-4.2-3.1c-1.3-1.1-2.8-2-4.3-2.9c-1.5-0.9-3-1.6-4.6-2.3c-1.6-0.6-3.3-1.2-5-1.5
	c-1.7-0.2-3.4,0.1-5.2,0.3c-1.7,0.2-3.4,0.3-5.1,0.9c-1.8,0.7-3,2.3-4.5,3.2c-1.6,1-3,1.9-4.3,3.1c-1.3,1.3-3,2.2-4,3.7
	c-1,1.5-1.3,3.3-2,5c-0.8,1.6-2.2,3-2.8,4.6c-0.6,1.7-1.5,3.3-2,5c-0.5,1.7-0.5,3.8-0.9,5.5c-0.4-1.9-0.7-4.1-1.2-6s-1.2-3.7-2-5.6
	c-0.7-1.8-1.1-3.8-2.2-5.5c-0.9-1.3-2.3-2.3-3.5-3.3c-1.2-1.1-2.3-2.4-3.7-3.2s-3.1-1.5-4.7-1.8c-1.6-0.4-3.4-0.3-5-0.1
	C183.8,6,182,6.3,180.6,7c-1.6,0.7-3.2,1.5-4.5,2.6c-1.2,1.1-1.4,3.1-2.4,4.5c-0.9,1.3-1.7,2.7-2.4,4.2c-0.7,1.5-2.3,2.7-2.7,4.3
	c-0.5,1.6-0.2,4-0.5,5.5c-0.8-1.6-1.2-4.1-2.2-5.5c-1-1.4-3.2-2.1-4.4-3.4c-1.2-1.3-2.6-2.4-4-3.5c-1.4-1.1-2.3-2.9-3.9-3.8
	c-1.5-0.9-3.5-1.2-5.1-2c-1.4-0.7-2.5-2.2-4.1-2.6c-1.5-0.5-3.3,0.2-4.9,0c-1.6-0.2-3.1-0.5-4.7-0.3c-1.6,0.2-2.9,1.2-4.4,1.9
	c-1.5,0.7-3.1,1.1-4.3,2.1c-1.2,1-2.4,2.1-3.4,3.4c-0.9,1.3-1.6,2.7-2.2,4.2c-0.8,1.8-1.6,3.7-1.9,5.6s0.2,4,0.1,5.9
	c-0.1,2-0.8,3.4-0.8,5.4c-1-1.3-2.2-1.8-3.1-3.1c-1-1.3-0.9-3.4-1.9-4.7c-1-1.3-2.8-2-3.9-3.2c-1.1-1.2-2.5-2.1-3.8-3.2
	c-1.3-1.1-2.2-2.5-3.6-3.5c-1.4-0.9-2.7-2.3-4.4-2.9c-1.6-0.6-3.7,0.1-5.4-0.3c-1.7-0.4-3.3-0.5-5.1-0.6c-1.7-0.1-3.5-0.8-5.2-0.7
	c-1.7,0.2-3.3,1.2-4.9,1.7c-1.7,0.5-3.2,1-4.7,1.8c-1.5,0.8-3,1.5-4.3,2.6c-1.2,1.1-2.2,2.4-3.1,3.8c-1,1.6-1.5,3.2-2,5
	c-0.5,1.7-1.2,3.4-1.4,5.2c-0.2,1.8-0.7,3.4-0.8,5.2c-0.8-1.4-2-2-3.5-2.9c-1.4-0.8-2.9-1.3-4.5-1.8c-1.6-0.5-3.3-0.6-4.9-0.9
	c-1.8-0.4-3.5-1.3-5.4-1.6c-1.8-0.2-3.7-0.1-5.6,0.1c-2,0.1-3.5,1-5.1,1.7c-1.8,0.7-3.8,0.8-5.1,2c-1.4,1.2-1.6,3.1-2.4,4.7
	s-2.3,3-2.4,4.7c-0.2,1.7,0.2,3.5,0.7,5.3c0.5,1.9,1.8,3.7,3.1,5.3C26.9,56.8,28.4,57.9,30.7,58.3"/>
<path d="M79.4,103c-2.8,2.8-7,4.3-11.5,4.3c-10.9,0-19.4-9.2-19.4-21.6S57,64.1,67.9,64.1c4.6,0,8.7,1.5,11.5,4.2l-1.6,9.8
	c-1.9-1.6-5.1-2.6-8.1-2.6c-6.2,0-10.8,4.2-10.8,10.1s4.6,10.2,10.8,10.2c3,0,6.2-1,8.1-2.6L79.4,103z"/>
<path d="M117.5,64.7v42.1h-10.1V91H94.2v15.8H84V64.7h10.1v15.6h13.3V64.7C107.4,64.7,117.5,64.7,117.5,64.7z"/>
<path d="M123.5,64.7h10.1v42.1h-10.1V64.7z"/>
<path d="M139.4,64.7h10.1V96h13.3v10.8h-23.4L139.4,64.7L139.4,64.7z"/>
<path d="M182.4,106.8h-15.8V64.7h15.3c11.6,0,18.7,9.3,18.7,21.1S193.9,106.8,182.4,106.8z M176.7,95.9h4.3c6.4,0,9.5-5.1,9.5-10.1
	s-3.2-9.7-9.5-9.7h-4.3V95.9z"/>
<path d="M227.6,91.9l7.6,14.9H225l-6.6-13.2H215v13.2h-10.1V64.7h15.3c8.6,0,14.7,6.1,14.7,14.7C234.9,86.4,231.9,90.1,227.6,91.9
	L227.6,91.9z M218.7,74.1H215v10.8h3.7c3.8,0,6.2-2,6.2-5.3S222.4,74.1,218.7,74.1L218.7,74.1z"/>
<path d="M263.5,90.8H250v5.6h16.3v10.4h-26.4V64.7h26.4v10.4H250v5.3h13.6V90.8L263.5,90.8z"/>
<path d="M304,106.8h-8.8l-14.1-21.3v21.3H271V64.7h8.9l14,21.1V64.7H304L304,106.8L304,106.8z"/>
<path d="M313.7,60.2h10l-6.9,18.7h-6.5L313.7,60.2L313.7,60.2z"/>
<path d="M322.5,92.6c2.5,1.6,9,3.9,13.1,3.9c3.2,0,5.2-0.7,5.2-2.2c0-4.1-19.6-2.8-19.6-16c0-8.7,6.4-14.1,16.1-14.1
	c4.8,0,9.5,1.2,12.8,3.2l-1.7,10.9c-2.2-1.3-7.9-3.4-11.5-3.4c-3.3,0-5.2,0.9-5.2,2.3c0,4.2,19.6,3.2,19.6,16.2
	c0,8.5-6.3,13.9-16,13.9c-5.4,0-10.5-1.4-14.2-3.9L322.5,92.6L322.5,92.6z"/>
<path d="M78.9,154c-2.8,2.8-7,4.3-11.5,4.3c-10.9,0-19.4-9.2-19.4-21.6s8.5-21.5,19.4-21.5c4.6,0,8.7,1.5,11.5,4.2l-1.6,9.8
	c-1.9-1.6-5.1-2.6-8.1-2.6c-6.2,0-10.8,4.2-10.8,10.1s4.6,10.2,10.8,10.2c3,0,6.2-1,8.1-2.6L78.9,154z"/>
<path d="M107.3,150.8H92.9l-2.2,7H80.6l13.8-42.1h10.1l15.4,42.1h-10.1L107.3,150.8L107.3,150.8z M96,141.3h7.8l-4.2-11.5L96,141.3z
	"/>
<path d="M137.7,115.7c8.6,0,14.7,6.1,14.7,14.7s-6,14.1-14.7,14.1h-5.3v13.2h-10.1v-42.1L137.7,115.7L137.7,115.7z M136.3,125.1
	h-3.9v10.8h3.9c3.8,0,6.2-2,6.2-5.3S140,125.1,136.3,125.1L136.3,125.1z"/>
<path d="M156.3,115.7h10.1v42.1h-10.1C156.3,157.8,156.3,115.7,156.3,115.7z"/>
<path d="M170.2,115.7h31.1v10.8h-10.5v31.3h-10.1v-31.3h-10.5L170.2,115.7L170.2,115.7z"/>
<path d="M223.8,150.8h-14.4l-2.2,7h-10.1l13.8-42.1H221l15.4,42.1h-10.1L223.8,150.8L223.8,150.8z M212.6,141.3h7.8l-4.2-11.5
	L212.6,141.3z"/>
<path d="M239.9,115.7H250V147h13.3v10.8h-23.4L239.9,115.7L239.9,115.7z"/>
<path d="M277.3,136.7c0-12.9,8.2-21.6,19.2-21.6s19,8.7,19,21.6s-8,21.5-19,21.5S277.3,149.6,277.3,136.7z M287.4,136.8
	c0,6.5,4.4,10.4,9.1,10.4s8.9-3.9,8.9-10.4s-4.2-10.6-8.9-10.6S287.4,130.2,287.4,136.8z"/>
<path d="M347.3,126.1H331v6.5h13.6v10.8H331v14.4h-10.1v-42.1h26.5L347.3,126.1L347.3,126.1z"/>
<path d="M78.9,207.1c-2.8,2.8-7,4.3-11.5,4.3c-10.9,0-19.4-9.2-19.4-21.6s8.5-21.5,19.4-21.5c4.6,0,8.7,1.5,11.5,4.2l-1.6,9.8
	c-1.9-1.6-5.1-2.6-8.1-2.6c-6.2,0-10.8,4.2-10.8,10.1S63,200,69.2,200c3,0,6.2-1,8.1-2.6L78.9,207.1z"/>
<path d="M115.1,193.9c0,11.7-5.4,17.5-16.2,17.5s-16.1-5.8-16.1-17.5v-25h10.1v25c0,4.8,2.2,6.7,6,6.7s6.1-2,6.1-6.7v-25h10.1
	L115.1,193.9L115.1,193.9z"/>
<path d="M120.7,168.9h10.1v31.3h13.3v10.8h-23.4L120.7,168.9L120.7,168.9z"/>
<path d="M141,168.9h31.1v10.8h-10.5V211h-10.1v-31.3H141L141,168.9L141,168.9z"/>
<path d="M207.9,193.9c0,11.7-5.4,17.5-16.1,17.5s-16.1-5.8-16.1-17.5v-25h10.1v25c0,4.8,2.2,6.7,6,6.7s6.1-2,6.1-6.7v-25h10.1
	L207.9,193.9L207.9,193.9z"/>
<path d="M236,196.1l7.6,14.9h-10.2l-6.6-13.2h-3.3V211h-10.1v-42.1h15.3c8.6,0,14.7,6.1,14.7,14.7
	C243.4,190.6,240.4,194.2,236,196.1L236,196.1z M227.2,178.2h-3.7V189h3.7c3.8,0,6.2-2,6.2-5.3S230.9,178.2,227.2,178.2L227.2,178.2
	z"/>
<path d="M272,195h-13.6v5.6h16.3V211h-26.4v-42.1h26.4v10.4h-16.3v5.3H272V195L272,195z"/>
<path d="M284.6,198.6c3.5,0,5.8,2.5,5.8,6.4s-2.3,6.4-5.8,6.4s-5.6-2.6-5.6-6.4S281.2,198.6,284.6,198.6z"/>
</svg>
